<svg xmlns="http://www.w3.org/2000/svg" viewBox="0 0 64 64" role="img" aria-label="Coffee'n Me">
  <circle cx="32" cy="32" r="32" fill="#3B241A"/>
  <g transform="translate(7.95 50.37) scale(0.5257)">
  <path d="M37.1 10.7Q28 10.7 20.95 7.05Q13.9 3.4 9.95 -3.75Q6 -10.9 6 -21.3Q6 -27.5 7.6 -33.7Q9.2 -39.9 11.95 -45.6Q14.7 -51.3 18.1 -56.1Q16.6 -62.1 16.6 -69.1Q16.6 -74.4 17.8 -79.2Q18.2 -80.6 19.2 -80.6Q20 -80.6 19.9 -79.6Q19.6 -77.6 19.4 -75.35Q19.2 -73.1 19.2 -70Q19.2 -64.2 20.3 -59Q21.3 -60.3 22.3 -61.4Q26.4 -65.9 32 -69.85Q37.6 -73.8 44.45 -76.2Q51.3 -78.6 59 -78.6Q66.2 -78.6 72.2 -75.95Q78.2 -73.3 81.85 -68.35Q85.5 -63.4 85.5 -56.4Q85.5 -52 83.15 -47.4Q80.8 -42.8 76.45 -38.95Q72.1 -35.1 65.95 -32.7Q59.8 -30.3 52.2 -30.3Q42.2 -30.3 33.9 -34.7Q25.6 -39.1 21 -48.1Q17 -41 15.1 -33.7Q13.2 -26.4 13.2 -19.8Q13.2 -10.2 16.4 -4.2Q19.6 1.8 25.25 4.65Q30.9 7.5 38.2 7.5Q51.2 7.5 61.05 0.95Q70.9 -5.6 77.3 -19.3Q78.5 -19.3 78.5 -18.4Q72.3 -3.6 61.55 3.55Q50.8 10.7 37.1 10.7ZM25.3 -54.8Q24 -53 22.8 -51.1Q26.3 -42.9 33.5 -37.9Q40.7 -32.9 51.6 -32.9Q58.5 -32.9 63.95 -35Q69.4 -37.1 73.15 -40.6Q76.9 -44.1 78.9 -48.35Q80.9 -52.6 80.9 -56.9Q80.9 -62.2 78.05 -66.2Q75.2 -70.2 70.3 -72.45Q65.4 -74.7 59.2 -74.7Q53 -74.7 46.75 -72.1Q40.5 -69.5 34.95 -65Q29.4 -60.5 25.3 -54.8Z" fill="#F8F5F2" stroke="#F8F5F2" stroke-width="5" stroke-linejoin="round"/>
  </g>
  <g transform="translate(37.0 34.0) rotate(22) scale(1.15)" fill="#B67A45">
    <path d="M -0.7,-7.1 A 5.4,7.7 0 0 0 -0.7,7.1 C -3.0,3.1 1.6,-3.1 -0.7,-7.1 Z"/>
    <path d="M 0.7,-7.1 A 5.4,7.7 0 0 1 0.7,7.1 C 3.0,3.1 -1.6,-3.1 0.7,-7.1 Z"/>
  </g>
</svg>
