<svg xmlns="http://www.w3.org/2000/svg" viewBox="0 -88 200 106" role="img" aria-label="Coffee'n Me monogram">
  <path d="M37.1 10.7Q28 10.7 20.95 7.05Q13.9 3.4 9.95 -3.75Q6 -10.9 6 -21.3Q6 -27.5 7.6 -33.7Q9.2 -39.9 11.95 -45.6Q14.7 -51.3 18.1 -56.1Q16.6 -62.1 16.6 -69.1Q16.6 -74.4 17.8 -79.2Q18.2 -80.6 19.2 -80.6Q20 -80.6 19.9 -79.6Q19.6 -77.6 19.4 -75.35Q19.2 -73.1 19.2 -70Q19.2 -64.2 20.3 -59Q21.3 -60.3 22.3 -61.4Q26.4 -65.9 32 -69.85Q37.6 -73.8 44.45 -76.2Q51.3 -78.6 59 -78.6Q66.2 -78.6 72.2 -75.95Q78.2 -73.3 81.85 -68.35Q85.5 -63.4 85.5 -56.4Q85.5 -52 83.15 -47.4Q80.8 -42.8 76.45 -38.95Q72.1 -35.1 65.95 -32.7Q59.8 -30.3 52.2 -30.3Q42.2 -30.3 33.9 -34.7Q25.6 -39.1 21 -48.1Q17 -41 15.1 -33.7Q13.2 -26.4 13.2 -19.8Q13.2 -10.2 16.4 -4.2Q19.6 1.8 25.25 4.65Q30.9 7.5 38.2 7.5Q51.2 7.5 61.05 0.95Q70.9 -5.6 77.3 -19.3Q78.5 -19.3 78.5 -18.4Q72.3 -3.6 61.55 3.55Q50.8 10.7 37.1 10.7ZM25.3 -54.8Q24 -53 22.8 -51.1Q26.3 -42.9 33.5 -37.9Q40.7 -32.9 51.6 -32.9Q58.5 -32.9 63.95 -35Q69.4 -37.1 73.15 -40.6Q76.9 -44.1 78.9 -48.35Q80.9 -52.6 80.9 -56.9Q80.9 -62.2 78.05 -66.2Q75.2 -70.2 70.3 -72.45Q65.4 -74.7 59.2 -74.7Q53 -74.7 46.75 -72.1Q40.5 -69.5 34.95 -65Q29.4 -60.5 25.3 -54.8Z" fill="#F8F5F2" stroke="#F8F5F2" stroke-width="1" stroke-linejoin="round"/>
  <path d="M136.5 11.5Q135 11.3 132.4 10.75Q129.8 10.2 127.1 8.6Q124.4 7 122.5 3.75Q120.6 0.5 120.6 -4.9Q120.6 -11.1 123.15 -18.55Q125.7 -26 129.4 -34.1Q133.1 -42.2 136.5 -50.1Q139.2 -56.4 139.2 -59.7Q139.2 -63 136.7 -63Q133.9 -63 128.35 -58.55Q122.8 -54.1 115.5 -45.1Q113.6 -42.7 110.6 -38.45Q107.6 -34.2 104.2 -29.05Q100.8 -23.9 97.55 -18.65Q94.3 -13.4 91.85 -9Q89.4 -4.6 88.3 -2Q87 1.1 85.3 2.25Q83.6 3.4 82.1 3.4Q80.8 3.4 79.9 2.7Q78.9 2 78.9 1Q78.9 0.4 79.2 0Q79.8 -1.2 82.2 -5.5Q84.6 -9.8 87.8 -16.9Q91 -24 93.9 -33.4Q94.8 -36.3 95.75 -40.1Q96.7 -43.9 97.5 -47.95Q98.3 -52 98.85 -55.55Q99.4 -59.1 99.4 -61.3Q99.4 -64.8 98.2 -66.45Q97 -68.1 95 -68.1Q92.8 -68.1 90 -66.2Q87.2 -64.3 84.3 -60.7Q79.3 -54.4 75.5 -49.05Q71.7 -43.7 68.55 -38.4Q65.4 -33.1 62.35 -27.1Q59.3 -21.1 55.9 -13.65Q52.5 -6.2 48.1 3.6Q47.4 5.2 45.75 5.9Q44.1 6.6 42.7 6.6Q41.3 6.6 40.4 6Q39.5 5.4 39.8 4.3Q42 0.8 44.7 -4.45Q47.4 -9.7 50.2 -16.1Q53 -22.5 55.6 -29.4Q58.2 -36.3 60.25 -42.9Q62.3 -49.5 63.5 -55.3Q64.7 -61.1 64.7 -65.2Q64.7 -72.9 61.45 -76.2Q58.2 -79.5 53.1 -79.5Q48.6 -79.5 43.2 -77.3Q37.8 -75.1 32.35 -71.3Q26.9 -67.5 22.1 -62.7Q15.2 -55.8 11.25 -47.7Q7.3 -39.6 7.3 -31.3Q7.3 -25.7 9.4 -21.8Q11.5 -17.9 14.95 -15.9Q18.4 -13.9 22.6 -13.9Q26.9 -13.9 30.65 -16.05Q34.4 -18.2 37.25 -21.65Q40.1 -25.1 41.7 -28.95Q43.3 -32.8 43.3 -36.2Q43.3 -39.1 41.7 -41Q40.1 -42.9 36.6 -42.9Q36.2 -42.9 35.75 -42.85Q35.3 -42.8 34.8 -42.8L34.5 -42.8Q33.8 -42.8 33.2 -43.05Q32.6 -43.3 32.6 -43.7Q32.6 -44.1 33.65 -44.6Q34.7 -45.1 37.5 -45.1Q42 -45.1 44.25 -42.45Q46.5 -39.8 46.5 -35.7Q46.5 -31.7 44.45 -27.5Q42.4 -23.3 38.9 -19.7Q35.4 -16.1 31.05 -13.9Q26.7 -11.7 22.1 -11.7Q16.7 -11.7 12.05 -14.2Q7.4 -16.7 4.6 -21.45Q1.8 -26.2 1.8 -32.8Q1.8 -39.1 4.4 -45.25Q7 -51.4 11.15 -56.85Q15.3 -62.3 20 -66.5Q25.2 -71.2 31 -74.55Q36.8 -77.9 42.55 -79.75Q48.3 -81.6 53.3 -81.6Q60.7 -81.6 65.55 -77.2Q70.4 -72.8 70.4 -63Q70.4 -59 69.3 -53.85Q68.2 -48.7 66.7 -43.55Q65.2 -38.4 63.8 -34.4L64 -34.4Q67.6 -40.9 70.45 -45.55Q73.3 -50.2 76.2 -54.2Q79.1 -58.2 82.7 -62.6Q85.8 -66.3 89.8 -68.5Q93.8 -70.7 97.5 -70.7Q100.8 -70.7 103.1 -68.5Q105.4 -66.3 105.4 -61Q105.4 -60.4 105.4 -60Q105.4 -59.6 105.3 -58.8Q104.4 -49.2 101.5 -39.95Q98.6 -30.7 95.5 -21.3Q98.6 -26.1 103.9 -33.5Q109.2 -40.9 115.5 -48.8Q123.2 -58.4 129.8 -63.2Q136.4 -68 140.7 -68Q146.1 -68 146.1 -61.4Q146.1 -58.9 145.15 -55.4Q144.2 -51.9 142.2 -48Q140 -43.6 137.35 -37.85Q134.7 -32.1 132.3 -25.8Q129.9 -19.5 128.35 -13.45Q126.8 -7.4 126.8 -2.3Q126.8 3.2 129.35 6.55Q131.9 9.9 138.2 9.9L138.8 9.9Q140.3 9.9 140.3 10.5Q140.3 10.9 139.3 11.3Q138.3 11.7 136.5 11.5Z" transform="translate(46 0)" fill="#F8F5F2" stroke="#F8F5F2" stroke-width="1" stroke-linejoin="round"/>
</svg>
