<svg xmlns="http://www.w3.org/2000/svg" viewBox="0 -118 442 160" role="img" aria-label="Coffee'n Me">
  <path d="M37.1 10.7Q28 10.7 20.95 7.05Q13.9 3.4 9.95 -3.75Q6 -10.9 6 -21.3Q6 -27.5 7.6 -33.7Q9.2 -39.9 11.95 -45.6Q14.7 -51.3 18.1 -56.1Q16.6 -62.1 16.6 -69.1Q16.6 -74.4 17.8 -79.2Q18.2 -80.6 19.2 -80.6Q20 -80.6 19.9 -79.6Q19.6 -77.6 19.4 -75.35Q19.2 -73.1 19.2 -70Q19.2 -64.2 20.3 -59Q21.3 -60.3 22.3 -61.4Q26.4 -65.9 32 -69.85Q37.6 -73.8 44.45 -76.2Q51.3 -78.6 59 -78.6Q66.2 -78.6 72.2 -75.95Q78.2 -73.3 81.85 -68.35Q85.5 -63.4 85.5 -56.4Q85.5 -52 83.15 -47.4Q80.8 -42.8 76.45 -38.95Q72.1 -35.1 65.95 -32.7Q59.8 -30.3 52.2 -30.3Q42.2 -30.3 33.9 -34.7Q25.6 -39.1 21 -48.1Q17 -41 15.1 -33.7Q13.2 -26.4 13.2 -19.8Q13.2 -10.2 16.4 -4.2Q19.6 1.8 25.25 4.65Q30.9 7.5 38.2 7.5Q51.2 7.5 61.05 0.95Q70.9 -5.6 77.3 -19.3Q78.5 -19.3 78.5 -18.4Q72.3 -3.6 61.55 3.55Q50.8 10.7 37.1 10.7ZM25.3 -54.8Q24 -53 22.8 -51.1Q26.3 -42.9 33.5 -37.9Q40.7 -32.9 51.6 -32.9Q58.5 -32.9 63.95 -35Q69.4 -37.1 73.15 -40.6Q76.9 -44.1 78.9 -48.35Q80.9 -52.6 80.9 -56.9Q80.9 -62.2 78.05 -66.2Q75.2 -70.2 70.3 -72.45Q65.4 -74.7 59.2 -74.7Q53 -74.7 46.75 -72.1Q40.5 -69.5 34.95 -65Q29.4 -60.5 25.3 -54.8Z M89.2 0Q85.1 0 83.15 -2.95Q81.2 -5.9 81.2 -10.1Q81.2 -14 82.7 -18.2Q84.3 -22.8 87.15 -26.6Q90 -30.4 93.45 -32.75Q96.9 -35.1 100.3 -35.1Q104.4 -35.1 106.35 -32.3Q108.3 -29.5 108.3 -25.2Q108.3 -22.2 107.3 -18.9Q106.3 -15.6 104.6 -12.4Q105.9 -11.1 108.3 -11.1Q111.1 -11.1 113.1 -12.9Q115.1 -14.7 117 -19.3Q118.2 -19.3 118.2 -18.4Q116.3 -13.8 113.85 -11.65Q111.4 -9.5 107.6 -9.6Q105.3 -9.6 103.8 -10.9Q101 -6.3 97.15 -3.15Q93.3 0 89.2 0ZM90.6 -2.2Q92.9 -2.2 95.2 -4.15Q97.5 -6.1 99.4 -8.6Q101.3 -11.1 102.1 -12.9Q100.5 -15.8 100.25 -17.25Q100 -18.7 100 -19.4Q100 -21.3 101 -22.3Q102 -23.3 103 -23.3Q104.4 -23.3 105.4 -22.1Q105.6 -23.2 105.7 -24.15Q105.8 -25.1 105.8 -26Q105.8 -28.6 104.85 -30.25Q103.9 -31.9 101.9 -31.9Q99.8 -31.9 97.5 -30.1Q95.2 -28.3 93.15 -25.3Q91.1 -22.3 89.6 -18.6Q88.3 -15.5 87.6 -12.75Q86.9 -10 86.9 -7.7Q86.9 -5.2 87.8 -3.7Q88.7 -2.2 90.6 -2.2Z M129.5 35.1Q127.3 35.1 125.65 34Q124 32.9 124 29.7Q124 24.7 127 16.1Q130 7.5 134.3 -2.8Q133.6 -4 133.3 -5.3Q130.4 -2.9 127.3 -1.4Q124.2 0.1 121.6 0.1Q121.7 0.8 121.7 1.55Q121.7 2.3 121.7 3.1Q121.7 8.3 120.45 13.9Q119.2 19.5 116.9 24.3Q114.6 29.1 111.5 32.1Q108.4 35.1 104.6 35.1Q102.4 35.1 100.75 34Q99.1 32.9 99.1 29.7Q99.1 24.7 102.1 16.1Q105.1 7.5 109.4 -2.8Q108.2 -4.8 108.2 -7Q108.2 -10.5 110.2 -11.8Q111.9 -13.2 113.8 -12.9Q117.4 -21 121.1 -28.85Q124.8 -36.7 128.25 -43.7Q131.7 -50.7 134.5 -56Q136.2 -59.3 138.05 -61.1Q139.9 -62.9 142.9 -62.9Q143.8 -62.9 145.05 -62.55Q146.3 -62.2 147.3 -62.3Q145 -60.1 141.55 -54.95Q138.1 -49.8 134.1 -42.7Q130.1 -35.6 125.95 -27.35Q121.8 -19.1 118 -10.6Q118.9 -9.4 119.85 -7.4Q120.8 -5.4 121.2 -3.1Q121.2 -2.8 121.3 -2.45Q121.4 -2.1 121.5 -1.8Q123.9 -1.7 127.05 -3.4Q130.2 -5.1 133.1 -7.8Q133.4 -10.7 135.1 -11.8Q136.8 -13.2 138.7 -12.9Q142.3 -21 146 -28.85Q149.7 -36.7 153.15 -43.7Q156.6 -50.7 159.4 -56Q161.1 -59.3 162.95 -61.1Q164.8 -62.9 167.8 -62.9Q168.7 -62.9 169.95 -62.55Q171.2 -62.2 172.2 -62.3Q169.9 -60.1 166.45 -54.95Q163 -49.8 159 -42.7Q155 -35.6 150.85 -27.35Q146.7 -19.1 142.9 -10.6Q143.8 -9.4 144.75 -7.4Q145.7 -5.4 146.1 -3.1Q146.1 -2.8 146.2 -2.45Q146.3 -2.1 146.4 -1.8Q148.7 -1.7 150.9 -3.35Q153.1 -5 155.1 -7.75Q157.1 -10.5 158.8 -13.55Q160.5 -16.6 161.6 -19.3Q162.8 -19.3 162.8 -18.4Q161.5 -15.4 159.8 -12.2Q158.1 -9 156.05 -6.2Q154 -3.4 151.6 -1.65Q149.2 0.1 146.5 0.1Q146.6 0.8 146.6 1.55Q146.6 2.3 146.6 3.1Q146.6 8.3 145.35 13.9Q144.1 19.5 141.8 24.3Q139.5 29.1 136.4 32.1Q133.3 35.1 129.5 35.1ZM143.7 -1.4L144.2 -1.4Q144.1 -4 143.3 -5.9Q142.7 -7.3 141.8 -8.3L139.7 -3.2Q140.6 -1.4 143.7 -1.4ZM118.8 -1.4L119.3 -1.4Q119.2 -4 118.4 -5.9Q117.8 -7.3 116.9 -8.3L114.8 -3.2Q115.7 -1.4 118.8 -1.4ZM131 32.4Q132 32.4 133.4 31.25Q134.8 30.1 136.1 28.3Q138.6 25 140.5 20.2Q142.4 15.4 143.5 10.2Q144.6 5 144.5 0.5Q144.3 0.5 144.05 0.55Q143.8 0.6 143.6 0.6Q142.3 0.6 140.9 0.1Q139.5 -0.4 138.6 -1.1Q136 5.6 133.75 12.15Q131.5 18.7 130.3 23.7Q129.9 25.6 129.7 27Q129.5 28.4 129.5 29.4Q129.5 32.4 131 32.4ZM106.1 32.4Q107.1 32.4 108.5 31.25Q109.9 30.1 111.2 28.3Q113.7 25 115.6 20.2Q117.5 15.4 118.6 10.2Q119.7 5 119.6 0.5Q119.4 0.5 119.15 0.55Q118.9 0.6 118.7 0.6Q117.4 0.6 116 0.1Q114.6 -0.4 113.7 -1.1Q111.1 5.6 108.85 12.15Q106.6 18.7 105.4 23.7Q105 25.6 104.8 27Q104.6 28.4 104.6 29.4Q104.6 32.4 106.1 32.4Z M168.5 0.4Q164.8 0.4 161.85 -2Q158.9 -4.4 158.9 -9.3Q158.9 -13.4 160.75 -18Q162.6 -22.6 165.65 -26.65Q168.7 -30.7 172.45 -33.25Q176.2 -35.8 180 -35.8Q181.9 -35.8 183.7 -34.7Q185.5 -33.6 185.5 -30.9Q185.5 -28.4 183.6 -25.4Q181.7 -22.4 178.2 -19.8Q176.7 -18.7 174.4 -17.7Q172.1 -16.7 169.8 -16.05Q167.5 -15.4 166 -15.4Q165.5 -14.2 165.05 -12.2Q164.6 -10.2 164.6 -8.1Q164.6 -5.6 165.6 -3.6Q166.6 -1.6 169.3 -1.6Q172.6 -1.6 175.45 -3.5Q178.3 -5.4 180.55 -8.3Q182.8 -11.2 184.4 -14.2Q186 -17.2 186.9 -19.3Q188.1 -19.3 188.1 -18.4Q186.8 -15.6 185.15 -12.3Q183.5 -9 181.25 -6.15Q179 -3.3 175.85 -1.45Q172.7 0.4 168.5 0.4ZM166.7 -17.2Q168.1 -17.2 171.4 -18.25Q174.7 -19.3 177.4 -21.6Q180 -23.9 181.4 -26.65Q182.8 -29.4 182.8 -31.3Q182.8 -33.5 181.2 -33.5Q180 -33.5 177.9 -31.9Q175.8 -30.3 172.7 -26.5Q170.8 -24.1 169.1 -21.3Q167.4 -18.5 166.7 -17.2Z M194.1 0.4Q190.4 0.4 187.45 -2Q184.5 -4.4 184.5 -9.3Q184.5 -13.4 186.35 -18Q188.2 -22.6 191.25 -26.65Q194.3 -30.7 198.05 -33.25Q201.8 -35.8 205.6 -35.8Q207.5 -35.8 209.3 -34.7Q211.1 -33.6 211.1 -30.9Q211.1 -28.4 209.2 -25.4Q207.3 -22.4 203.8 -19.8Q202.3 -18.7 200 -17.7Q197.7 -16.7 195.4 -16.05Q193.1 -15.4 191.6 -15.4Q191.1 -14.2 190.65 -12.2Q190.2 -10.2 190.2 -8.1Q190.2 -5.6 191.2 -3.6Q192.2 -1.6 194.9 -1.6Q198.2 -1.6 201.05 -3.5Q203.9 -5.4 206.15 -8.3Q208.4 -11.2 210 -14.2Q211.6 -17.2 212.5 -19.3Q213.7 -19.3 213.7 -18.4Q212.4 -15.6 210.75 -12.3Q209.1 -9 206.85 -6.15Q204.6 -3.3 201.45 -1.45Q198.3 0.4 194.1 0.4ZM192.3 -17.2Q193.7 -17.2 197 -18.25Q200.3 -19.3 203 -21.6Q205.6 -23.9 207 -26.65Q208.4 -29.4 208.4 -31.3Q208.4 -33.5 206.8 -33.5Q205.6 -33.5 203.5 -31.9Q201.4 -30.3 198.3 -26.5Q196.4 -24.1 194.7 -21.3Q193 -18.5 192.3 -17.2Z M213.5 0.8Q217.1 -6.5 220.4 -13.65Q223.7 -20.8 227.2 -27.3Q229.2 -30.9 230.6 -32.35Q232 -33.8 234.3 -33.8Q235.1 -33.8 236 -33.55Q236.9 -33.3 237.8 -33.3Q238.4 -33.3 238.7 -33.4Q237.3 -32.6 235.05 -29.45Q232.8 -26.3 230.5 -22.2Q228.2 -18.1 226.4 -14.5Q228.3 -16.8 230.4 -19.1Q232.5 -21.4 235 -23.5Q237.4 -25.6 240.75 -27.85Q244.1 -30.1 247.3 -31.6Q250.5 -33.1 252.4 -33.1Q253.1 -33.1 253.4 -33Q253.4 -33 252.3 -31.05Q251.2 -29.1 249.55 -25.95Q247.9 -22.8 246.2 -19.25Q244.5 -15.7 243.15 -12.45Q241.8 -9.2 241.4 -7Q241.1 -5.7 241.1 -4.6Q241.1 -3 241.7 -2.5Q242.3 -2 243 -2Q244.9 -2 246.9 -3.7Q248.9 -5.4 250.75 -8.05Q252.6 -10.7 254.2 -13.7Q255.8 -16.7 256.9 -19.3Q258.1 -19.3 258.1 -18.4Q257 -15.7 255.35 -12.45Q253.7 -9.2 251.65 -6.3Q249.6 -3.4 247.1 -1.5Q244.6 0.4 241.7 0.4Q239.7 0.4 237.55 -1Q235.4 -2.4 235.4 -6.2Q235.4 -7.3 235.6 -8.55Q235.8 -9.8 236.3 -11.3Q237.1 -13.3 238.2 -15.6Q239.3 -17.9 241.8 -21.9Q242.5 -23 242.65 -23.6Q242.8 -24.2 242.8 -24.6Q242.8 -25.8 241.7 -25.8Q240.8 -25.8 239.05 -24.8Q237.3 -23.8 234.7 -21.3Q232.2 -18.9 228.75 -14.5Q225.3 -10.1 220.8 -1.5Q220.1 -0.2 219.25 -0.1Q218.4 0 216.9 0.1Q215.9 0.2 215 0.25Q214.1 0.3 213.5 0.8Z M404.6 11.5Q403.1 11.3 400.5 10.75Q397.9 10.2 395.2 8.6Q392.5 7 390.6 3.75Q388.7 0.5 388.7 -4.9Q388.7 -11.1 391.25 -18.55Q393.8 -26 397.5 -34.1Q401.2 -42.2 404.6 -50.1Q407.3 -56.4 407.3 -59.7Q407.3 -63 404.8 -63Q402 -63 396.45 -58.55Q390.9 -54.1 383.6 -45.1Q381.7 -42.7 378.7 -38.45Q375.7 -34.2 372.3 -29.05Q368.9 -23.9 365.65 -18.65Q362.4 -13.4 359.95 -9Q357.5 -4.6 356.4 -2Q355.1 1.1 353.4 2.25Q351.7 3.4 350.2 3.4Q348.9 3.4 348 2.7Q347 2 347 1Q347 0.4 347.3 0Q347.9 -1.2 350.3 -5.5Q352.7 -9.8 355.9 -16.9Q359.1 -24 362 -33.4Q362.9 -36.3 363.85 -40.1Q364.8 -43.9 365.6 -47.95Q366.4 -52 366.95 -55.55Q367.5 -59.1 367.5 -61.3Q367.5 -64.8 366.3 -66.45Q365.1 -68.1 363.1 -68.1Q360.9 -68.1 358.1 -66.2Q355.3 -64.3 352.4 -60.7Q347.4 -54.4 343.6 -49.05Q339.8 -43.7 336.65 -38.4Q333.5 -33.1 330.45 -27.1Q327.4 -21.1 324 -13.65Q320.6 -6.2 316.2 3.6Q315.5 5.2 313.85 5.9Q312.2 6.6 310.8 6.6Q309.4 6.6 308.5 6Q307.6 5.4 307.9 4.3Q310.1 0.8 312.8 -4.45Q315.5 -9.7 318.3 -16.1Q321.1 -22.5 323.7 -29.4Q326.3 -36.3 328.35 -42.9Q330.4 -49.5 331.6 -55.3Q332.8 -61.1 332.8 -65.2Q332.8 -72.9 329.55 -76.2Q326.3 -79.5 321.2 -79.5Q316.7 -79.5 311.3 -77.3Q305.9 -75.1 300.45 -71.3Q295 -67.5 290.2 -62.7Q283.3 -55.8 279.35 -47.7Q275.4 -39.6 275.4 -31.3Q275.4 -25.7 277.5 -21.8Q279.6 -17.9 283.05 -15.9Q286.5 -13.9 290.7 -13.9Q295 -13.9 298.75 -16.05Q302.5 -18.2 305.35 -21.65Q308.2 -25.1 309.8 -28.95Q311.4 -32.8 311.4 -36.2Q311.4 -39.1 309.8 -41Q308.2 -42.9 304.7 -42.9Q304.3 -42.9 303.85 -42.85Q303.4 -42.8 302.9 -42.8L302.6 -42.8Q301.9 -42.8 301.3 -43.05Q300.7 -43.3 300.7 -43.7Q300.7 -44.1 301.75 -44.6Q302.8 -45.1 305.6 -45.1Q310.1 -45.1 312.35 -42.45Q314.6 -39.8 314.6 -35.7Q314.6 -31.7 312.55 -27.5Q310.5 -23.3 307 -19.7Q303.5 -16.1 299.15 -13.9Q294.8 -11.7 290.2 -11.7Q284.8 -11.7 280.15 -14.2Q275.5 -16.7 272.7 -21.45Q269.9 -26.2 269.9 -32.8Q269.9 -39.1 272.5 -45.25Q275.1 -51.4 279.25 -56.85Q283.4 -62.3 288.1 -66.5Q293.3 -71.2 299.1 -74.55Q304.9 -77.9 310.65 -79.75Q316.4 -81.6 321.4 -81.6Q328.8 -81.6 333.65 -77.2Q338.5 -72.8 338.5 -63Q338.5 -59 337.4 -53.85Q336.3 -48.7 334.8 -43.55Q333.3 -38.4 331.9 -34.4L332.1 -34.4Q335.7 -40.9 338.55 -45.55Q341.4 -50.2 344.3 -54.2Q347.2 -58.2 350.8 -62.6Q353.9 -66.3 357.9 -68.5Q361.9 -70.7 365.6 -70.7Q368.9 -70.7 371.2 -68.5Q373.5 -66.3 373.5 -61Q373.5 -60.4 373.5 -60Q373.5 -59.6 373.4 -58.8Q372.5 -49.2 369.6 -39.95Q366.7 -30.7 363.6 -21.3Q366.7 -26.1 372 -33.5Q377.3 -40.9 383.6 -48.8Q391.3 -58.4 397.9 -63.2Q404.5 -68 408.8 -68Q414.2 -68 414.2 -61.4Q414.2 -58.9 413.25 -55.4Q412.3 -51.9 410.3 -48Q408.1 -43.6 405.45 -37.85Q402.8 -32.1 400.4 -25.8Q398 -19.5 396.45 -13.45Q394.9 -7.4 394.9 -2.3Q394.9 3.2 397.45 6.55Q400 9.9 406.3 9.9L406.9 9.9Q408.4 9.9 408.4 10.5Q408.4 10.9 407.4 11.3Q406.4 11.7 404.6 11.5Z M414.8 0.4Q411.1 0.4 408.15 -2Q405.2 -4.4 405.2 -9.3Q405.2 -13.4 407.05 -18Q408.9 -22.6 411.95 -26.65Q415 -30.7 418.75 -33.25Q422.5 -35.8 426.3 -35.8Q428.2 -35.8 430 -34.7Q431.8 -33.6 431.8 -30.9Q431.8 -28.4 429.9 -25.4Q428 -22.4 424.5 -19.8Q423 -18.7 420.7 -17.7Q418.4 -16.7 416.1 -16.05Q413.8 -15.4 412.3 -15.4Q411.8 -14.2 411.35 -12.2Q410.9 -10.2 410.9 -8.1Q410.9 -5.6 411.9 -3.6Q412.9 -1.6 415.6 -1.6Q418.9 -1.6 421.75 -3.5Q424.6 -5.4 426.85 -8.3Q429.1 -11.2 430.7 -14.2Q432.3 -17.2 433.2 -19.3Q434.4 -19.3 434.4 -18.4Q433.1 -15.6 431.45 -12.3Q429.8 -9 427.55 -6.15Q425.3 -3.3 422.15 -1.45Q419 0.4 414.8 0.4ZM413 -17.2Q414.4 -17.2 417.7 -18.25Q421 -19.3 423.7 -21.6Q426.3 -23.9 427.7 -26.65Q429.1 -29.4 429.1 -31.3Q429.1 -33.5 427.5 -33.5Q426.3 -33.5 424.2 -31.9Q422.1 -30.3 419 -26.5Q417.1 -24.1 415.4 -21.3Q413.7 -18.5 413 -17.2Z" fill="#3B241A" stroke="#3B241A" stroke-width="1" stroke-linejoin="round"/>
  <g transform="translate(221.6 -51.7) rotate(22) scale(1.3)" fill="#B67A45">
    <path d="M -0.7,-7.1 A 5.4,7.7 0 0 0 -0.7,7.1 C -3.0,3.1 1.6,-3.1 -0.7,-7.1 Z"/>
    <path d="M 0.7,-7.1 A 5.4,7.7 0 0 1 0.7,7.1 C 3.0,3.1 -1.6,-3.1 0.7,-7.1 Z"/>
  </g>
  <path d="M 0,0 C 8,-12 -8,-23 0,-34 C 6,-42 3.5,-49 -3,-55" transform="translate(168 -60) scale(1)"
      fill="none" stroke="#B67A45" stroke-width="2.40" stroke-linecap="round" opacity="0.9"/>
  <path d="M 0,0 C 8,-12 -8,-23 0,-34 C 6,-42 3.5,-49 -3,-55" transform="translate(143 -60) scale(0.55)"
      fill="none" stroke="#B67A45" stroke-width="3.24" stroke-linecap="round" opacity="0.55"/>
</svg>
